# xmcd
#
# Track frame offsets:
#	150
#	12699
#	24790
#	38931
#	52382
#	73392
#	82463
#	97367
#	114773
#	128840
#	142357
#	154938
#	173170
#	186074
#	202847
#	214800
#	232916
#	251510
#
# Disc length: 3695 seconds
#
# Revision: 1
# Processed by: cddbd v1.5.2PL0 Copyright (c) Steve Scherf et al.
# Submitted via: audiograbber 1.83.01
#
DISCID=110e6d12
DTITLE=Freddy Fender - Freddy Fender Live
DYEAR=2007
DGENRE=Country
TTITLE0=Wasted Days And Wasted Nights
TTITLE1=Before The Next Teardrops Falls
TTITLE2=Whiskey River
TTITLE3=I Can´t Stop Loving You
TTITLE4=Six Days On The Road
TTITLE5=Loving Cajun Style
TTITLE6=Cielito Lindo
TTITLE7=Jambalaya
TTITLE8=The Rains Came
TTITLE9=Mexican Rose
TTITLE10=Tell It Like It Is
TTITLE11=Secret Love
TTITLE12=I Love My Rancho Grande
TTITLE13=The Next Time You Se Me
TTITLE14=You´ll Loose A Good Thing
TTITLE15=Talk To Me
TTITLE16=Vaya Con Dios
TTITLE17=Since I Met You Baby
EXTD=
EXTT0=
EXTT1=
EXTT2=
EXTT3=
EXTT4=
EXTT5=
EXTT6=
EXTT7=
EXTT8=
EXTT9=
EXTT10=
EXTT11=
EXTT12=
EXTT13=
EXTT14=
EXTT15=
EXTT16=
EXTT17=
PLAYORDER=
